<?xml version="1.0" encoding="UTF-8" standalone="no"?>
<svg
   xmlns:dc="http://purl.org/dc/elements/1.1/"
   xmlns:cc="http://creativecommons.org/ns#"
   xmlns:rdf="http://www.w3.org/1999/02/22-rdf-syntax-ns#"
   xmlns:svg="http://www.w3.org/2000/svg"
   xmlns="http://www.w3.org/2000/svg"
   id="svg2"
   height="100"
   width="100"
   version="1.1">
  <defs
     id="defs4" />
  <metadata
     id="metadata7">
    <rdf:RDF>
      <cc:Work
         rdf:about="">
        <dc:format>image/svg+xml</dc:format>
        <dc:type
           rdf:resource="http://purl.org/dc/dcmitype/StillImage" />
        <dc:title></dc:title>
      </cc:Work>
    </rdf:RDF>
  </metadata>
  <path
     d="m 16.101562,9.1933594 c -2.279199,0 -4.230449,0.8105336 -5.853515,2.4335936 -1.6230658,1.62306 -2.4335939,3.574316 -2.4335939,5.853516 l 0,62.988281 c 0,2.2792 0.8105281,4.23045 2.4335939,5.853516 1.623066,1.623066 3.574316,2.435546 5.853515,2.435546 l 69.619141,0 c 2.2792,0 4.230456,-0.81248 5.853516,-2.435546 1.62306,-1.623066 2.433593,-3.574316 2.433593,-5.853516 l 0,-62.988281 c 10e-7,-2.2792 -0.810533,-4.230456 -2.433593,-5.853516 -1.62306,-1.62306 -3.574316,-2.4335936 -5.853516,-2.4335936 l -69.619141,0 z m 0,6.6289066 34.810547,0 34.808594,0 c 0.44894,0 0.837956,0.164127 1.166016,0.492187 0.32806,0.32806 0.492187,0.717076 0.492187,1.166016 l 0,25.064453 -72.935547,0 0,-25.064453 c 0,-0.44894 0.164122,-0.837956 0.492188,-1.166016 0.328066,-0.32806 0.717082,-0.492187 1.166015,-0.492187 z m -1.658203,33.359375 72.935547,0 0,26.314453 -36.466797,0 -36.46875,0 0,-26.314453 z"
     style="stroke:none;stroke-opacity:1"
     id="path4167" />
</svg>
