<?xml version="1.0" encoding="UTF-8" standalone="no"?>
<svg
   xmlns:dc="http://purl.org/dc/elements/1.1/"
   xmlns:cc="http://creativecommons.org/ns#"
   xmlns:rdf="http://www.w3.org/1999/02/22-rdf-syntax-ns#"
   xmlns:svg="http://www.w3.org/2000/svg"
   xmlns="http://www.w3.org/2000/svg"
   xmlns:sodipodi="http://sodipodi.sourceforge.net/DTD/sodipodi-0.dtd"
   xmlns:inkscape="http://www.inkscape.org/namespaces/inkscape"
   id="svg2"
   height="100"
   width="100"
   version="1.1"
   inkscape:version="0.91 r13725"
   sodipodi:docname="8_rows.svg">
  <sodipodi:namedview
     pagecolor="#ffffff"
     bordercolor="#666666"
     borderopacity="1"
     objecttolerance="10"
     gridtolerance="10"
     guidetolerance="10"
     inkscape:pageopacity="0"
     inkscape:pageshadow="2"
     inkscape:window-width="1920"
     inkscape:window-height="994"
     id="namedview4172"
     showgrid="true"
     inkscape:zoom="8.1"
     inkscape:cx="50"
     inkscape:cy="49.206939"
     inkscape:window-x="0"
     inkscape:window-y="0"
     inkscape:window-maximized="1"
     inkscape:current-layer="svg2"
     showguides="true"
     inkscape:guide-bbox="true">
    <inkscape:grid
       type="xygrid"
       id="grid4141" />
    <sodipodi:guide
       position="50.864198,67.322835"
       orientation="1,0"
       id="guide4143" />
    <sodipodi:guide
       position="97.160494,50.987654"
       orientation="0,1"
       id="guide4145" />
  </sodipodi:namedview>
  <defs
     id="defs4" />
  <metadata
     id="metadata7">
    <rdf:RDF>
      <cc:Work
         rdf:about="">
        <dc:format>image/svg+xml</dc:format>
        <dc:type
           rdf:resource="http://purl.org/dc/dcmitype/StillImage" />
        <dc:title />
      </cc:Work>
    </rdf:RDF>
  </metadata>
  <path
     d="m 89.20166,98.736035 c 2.507119,0 4.653494,-0.891588 6.438867,-2.676954 1.785372,-1.785366 2.676953,-3.931747 2.676953,-6.438867 l 0,-69.287109 c 0,-2.50712 -0.891581,-4.653495 -2.676953,-6.438868 -1.785373,-1.785373 -3.931748,-2.6791 -6.438867,-2.6791 l -76.581055,0 c -2.50712,0 -4.6535017,0.893727 -6.4388677,2.6791 -1.7853658,1.785373 -2.6769521,3.931748 -2.6769521,6.438868 l 0,69.287109 c -1.1e-6,2.50712 0.8915863,4.653501 2.6769521,6.438867 1.785366,1.785366 3.9317477,2.676954 6.4388677,2.676954 l 76.581055,0 z m 0,-7.291798 -38.291602,0 -38.289453,0 c -0.493834,0 -0.921752,-0.18054 -1.282618,-0.541406 -0.360866,-0.360866 -0.541405,-0.788783 -0.541405,-1.282617 l 0,-27.570899 80.229101,0 0,27.570899 c 0,0.493834 -0.180534,0.921751 -0.541406,1.282617 -0.360873,0.360866 -0.788791,0.541406 -1.282617,0.541406 z m 1.824023,-36.695313 -80.229101,0 0,-28.945898 40.113476,0 40.115625,0 0,28.945898 z"
     style="stroke:none;stroke-opacity:1"
     id="path4167"
     inkscape:connector-curvature="0" />
</svg>
