<?xml version="1.0" encoding="UTF-8" standalone="no"?>
<!-- Generator: Adobe Illustrator 19.0.0, SVG Export Plug-In . SVG Version: 6.00 Build 0)  -->

<svg
   xmlns:dc="http://purl.org/dc/elements/1.1/"
   xmlns:cc="http://creativecommons.org/ns#"
   xmlns:rdf="http://www.w3.org/1999/02/22-rdf-syntax-ns#"
   xmlns:svg="http://www.w3.org/2000/svg"
   xmlns="http://www.w3.org/2000/svg"
   xmlns:sodipodi="http://sodipodi.sourceforge.net/DTD/sodipodi-0.dtd"
   xmlns:inkscape="http://www.inkscape.org/namespaces/inkscape"
   version="1.1"
   id="Layer_1"
   x="0px"
   y="0px"
   viewBox="0 0 993 711"
   xml:space="preserve"
   inkscape:version="0.91 r13725"
   sodipodi:docname="extraterm_main_logo.svg"
   width="993"
   height="711"><metadata
     id="metadata4180"><rdf:RDF><cc:Work
         rdf:about=""><dc:format>image/svg+xml</dc:format><dc:type
           rdf:resource="http://purl.org/dc/dcmitype/StillImage" /><dc:title></dc:title></cc:Work></rdf:RDF></metadata><defs
     id="defs4178" /><sodipodi:namedview
     pagecolor="#ffffff"
     bordercolor="#666666"
     borderopacity="1"
     objecttolerance="10"
     gridtolerance="10"
     guidetolerance="10"
     inkscape:pageopacity="0"
     inkscape:pageshadow="2"
     inkscape:window-width="1920"
     inkscape:window-height="994"
     id="namedview4176"
     showgrid="false"
     inkscape:zoom="1.145513"
     inkscape:cx="491.34458"
     inkscape:cy="407.67666"
     inkscape:window-x="0"
     inkscape:window-y="0"
     inkscape:window-maximized="1"
     inkscape:current-layer="Layer_1"><inkscape:grid
       type="xygrid"
       id="grid4182" /></sodipodi:namedview><style
     type="text/css"
     id="style4137">
	.st0{fill:#BDBEC0;}
	.st1{fill:#A8AAAD;}
	.st2{opacity:0.15;}
	.st3{fill:#231F20;}
	.st4{opacity:0.15;fill:#010101;}
	.st5{opacity:0.04;fill:#010101;}
	.st6{fill:#939598;}
	.st7{opacity:0.1;fill:#010101;}
	.st8{opacity:0.2;}
	.st9{fill:#FFFFFF;}
	.st10{fill:#3DB54A;}
	.st11{opacity:0.5;}
	.st12{fill:#019547;}
	.st13{fill:#010101;}
	.st14{opacity:0.05;}
</style><g
     id="XMLID_1_"
     transform="translate(-4,-103)"><path
       id="XMLID_74_"
       class="st0"
       d="m 868.6,589.5 c 0,0 -78.6,-110 -181.2,-256.2 C 584.8,187.1 542.6,139.5 437.7,103.1 c 0,0 12.2,93.7 96.7,205.3 84.5,111.6 214,284.1 214,284.1 l 6.1,2.1 114.1,-5.1 z"
       inkscape:connector-curvature="0"
       style="fill:#bdbec0" /><path
       id="XMLID_73_"
       class="st1"
       d="m 879.3,597.4 c 0,0 -78.9,-109.8 -181.8,-255.6 C 594.6,196 552.1,148.4 447.1,112.3 c 0,0 12.4,93.6 97.2,204.9 84.8,111.3 210.2,277.3 210.2,277.3 l 34.4,13 90.4,-10.1 z"
       inkscape:connector-curvature="0"
       style="fill:#a8aaad" /><g
       id="XMLID_67_"
       class="st2"
       style="opacity:0.15"><path
         id="XMLID_69_"
         class="st3"
         d="m 755.2,607.8 63.4,-42.1 c 1,-0.7 1.9,0.6 1,1.4 l -58.9,48.6 -5.5,-7.9 z"
         inkscape:connector-curvature="0"
         style="fill:#231f20" /></g><path
       id="XMLID_66_"
       class="st4"
       d="m 565.8,194 c 15.1,16.6 46.8,51.9 66.3,79.2 1,1.4 -1,3.6 -2.5,2.7 -12.9,-8.3 -41.1,-30.6 -66.6,-79.5 -0.9,-1.8 1.5,-3.8 2.8,-2.4 z"
       inkscape:connector-curvature="0"
       style="opacity:0.15;fill:#010101" /><path
       id="XMLID_60_"
       class="st5"
       d="m 463.5,172 c 13.6,37.4 38,89.1 80.7,145.2 84.8,111.3 210.3,277.3 210.3,277.3 l 34.4,13 90.4,-10.1 c 0,0 -9.8,-13.6 -26.9,-37.5 l 0,0 C 710.7,360.5 592.8,418.9 463.5,172 Z"
       inkscape:connector-curvature="0"
       style="opacity:0.03999999;fill:#010101" /><path
       id="XMLID_30_"
       class="st1"
       d="M 56.1,617.7 43.5,604.5 c -4.4,-4.7 -4.8,-11.9 -0.9,-17 l 154,-200.2 c 2.5,-3.2 5.5,-6 8.9,-8.2 l 72.3,-47.4 c 1.5,-1 3.5,-0.9 4.9,0.3 l 58.8,50.5 c 1.5,1.3 1.8,3.4 0.8,5.1 -48,77.6 -101.2,50.4 -136.9,96.3 -47.3,60.9 37.8,112.5 81.2,68.7 0,0 20.8,33.8 -21.4,50.3 L 56.1,617.7 Z"
       inkscape:connector-curvature="0"
       style="fill:#a8aaad" /><path
       id="XMLID_61_"
       class="st4"
       d="m 136.7,483.8 c 12.9,-18.1 40.6,-56.5 62.5,-81.6 1.3,-1.5 3.7,-0.1 3,1.8 -5.6,14.9 -21.8,48.1 -62.9,82.2 -1.6,1.4 -3.8,-0.7 -2.6,-2.4 z"
       inkscape:connector-curvature="0"
       style="opacity:0.15;fill:#010101" /><path
       id="XMLID_62_"
       class="st5"
       d="m 165.9,604.7 99.3,-1.8 c 42.3,-16.5 21.4,-50.3 21.4,-50.3 -43.4,43.7 -128.5,-7.9 -81.2,-68.7 35.7,-45.9 88.9,-18.7 136.9,-96.3 1,-1.6 0.7,-3.8 -0.8,-5.1 L 329.7,372.4 C 295,442.2 226.3,423 186.8,474.4 144.3,529.8 165.9,604.7 165.9,604.7 Z"
       inkscape:connector-curvature="0"
       style="opacity:0.03999999;fill:#010101" /><path
       id="XMLID_82_"
       class="st6"
       d="m 976.2,595.2 c -2.5,-0.5 -5,-0.6 -7.5,-0.3 l -70.7,8.3 40.7,92.7 51.7,-60.8 c 2.7,-3.1 4.6,-7 5.4,-11.3 2.4,-13.3 -6.3,-26.1 -19.6,-28.6 z m -4.6,34 c -5.5,0 -9.9,-4.4 -9.9,-9.9 0,-5.5 4.4,-9.9 9.9,-9.9 5.5,0 9.9,4.4 9.9,9.9 0,5.4 -4.4,9.9 -9.9,9.9 z"
       inkscape:connector-curvature="0"
       style="fill:#939598" /><path
       id="XMLID_14_"
       class="st7"
       d="m 902,602.8 c 57.7,1.9 53,59.7 88.4,32.3 L 963.6,666.7 902,602.8 Z"
       inkscape:connector-curvature="0"
       style="opacity:0.1;fill:#010101" /><g
       id="XMLID_18_"
       class="st8"
       style="opacity:0.2"><path
         id="XMLID_24_"
         class="st9"
         d="m 989.3,609.4 c 0,0 -0.1,-0.2 -0.4,-0.7 -0.3,-0.5 -0.7,-1.1 -1.3,-1.9 -1.2,-1.5 -3.2,-3.4 -6,-5 -1.4,-0.8 -3.1,-1.4 -4.9,-1.8 -1.8,-0.4 -3.7,-0.8 -5.7,-0.9 -1,-0.1 -2,-0.1 -3,0 -1.1,0.1 -2.1,0.3 -3.2,0.4 -2.2,0.3 -4.4,0.5 -6.7,0.7 -4.5,0.4 -9,0.9 -13.2,1.3 -4.2,0.3 -8.1,0.6 -11.5,0.8 -1.7,0.1 -3.2,0.2 -4.6,0.2 -1.4,0.1 -2.6,0.1 -3.6,0.2 -2,0.1 -3.1,0.1 -3.1,0.1 l 0,-0.2 c 0,0 17.9,-2 35.8,-4 2.2,-0.2 4.5,-0.5 6.7,-0.7 1.1,-0.1 2.2,-0.3 3.3,-0.3 1.1,0 2.2,0 3.2,0.1 4.2,0.3 8.1,1.5 11,3.3 2.9,1.7 4.8,4 5.9,5.6 0.5,0.8 0.9,1.5 1.1,2 0.2,0.5 0.3,0.7 0.3,0.7 l -0.1,0.1 z"
         inkscape:connector-curvature="0"
         style="fill:#ffffff" /></g><g
       id="shape"><path
         id="XMLID_17_"
         class="st10"
         d="m 865,814.3 -751.3,0 c -60.2,0 -109,-48.8 -109,-109 l 0,0 c 0,-60.2 48.8,-109 109,-109 l 751.3,0 c 60.2,0 109,48.8 109,109 l 0,0 c 0,60.2 -48.8,109 -109,109 z"
         inkscape:connector-curvature="0"
         style="fill:#3db54a" /><g
         id="XMLID_10_"
         class="st11"
         style="opacity:0.5"><path
           id="XMLID_11_"
           class="st12"
           d="m 865,613.2 c 50.8,0 92.1,41.3 92.1,92.1 0,50.8 -41.3,92.1 -92.1,92.1 l -751.3,0 c -50.8,0 -92.1,-41.3 -92.1,-92.1 0,-50.8 41.3,-92.1 92.1,-92.1 l 751.3,0 m 0,-16.9 -751.3,0 c -60.2,0 -109,48.8 -109,109 l 0,0 c 0,60.2 48.8,109 109,109 l 751.3,0 c 60.2,0 109,-48.8 109,-109 l 0,0 c 0,-60.2 -48.8,-109 -109,-109 l 0,0 z"
           inkscape:connector-curvature="0"
           style="fill:#019547" /></g></g><g
       id="shadow"
       class="st2"
       style="opacity:0.15"><path
         id="XMLID_9_"
         class="st13"
         d="m 865,797.4 -751.3,0 C 56.4,797.4 9.4,753.1 5.1,696.9 c -0.2,2.8 -0.4,5.6 -0.4,8.5 l 0,0 c 0,60.2 48.8,109 109,109 l 751.3,0 c 60.2,0 109,-48.8 109,-109 l 0,0 c 0,-2.8 -0.1,-5.7 -0.4,-8.5 -4.3,56.2 -51.3,100.5 -108.6,100.5 z"
         inkscape:connector-curvature="0"
         style="fill:#010101" /></g><g
       id="symbol"><path
         id="XMLID_5_"
         class="st9"
         d="m 135.5,710.2 0,-15.9 c 0,-0.8 -0.4,-1.5 -1.1,-1.9 l -49.3,-27 c -1.4,-0.8 -3.2,0.3 -3.2,1.9 l 0.1,16.9 c 0,0.8 0.4,1.5 1.1,1.9 l 29.3,16.1 -29.3,16 c -0.7,0.4 -1.1,1.1 -1.1,1.9 l 0,17 c 0,1.6 1.8,2.7 3.2,1.9 l 49.2,-26.9 c 0.7,-0.4 1.1,-1.1 1.1,-1.9 z"
         inkscape:connector-curvature="0"
         style="fill:#ffffff" /><path
         id="XMLID_8_"
         class="st9"
         d="m 189.4,745.9 c -0.5,-0.5 -1.2,-0.7 -1.9,-0.7 l -57.1,0 c -1.8,0 -2.7,0.9 -2.7,2.7 l 0,11.2 c 0,2 0.9,3 2.7,3 l 57.1,0 c 0.4,0 0.8,-0.1 1.1,-0.3 0.3,-0.2 0.6,-0.5 0.9,-0.7 0.2,-0.3 0.4,-0.6 0.6,-1 0.1,-0.4 0.2,-0.7 0.2,-1 l 0,-11.2 c -0.1,-0.9 -0.3,-1.6 -0.9,-2 z"
         inkscape:connector-curvature="0"
         style="fill:#ffffff" /></g><g
       id="highlight"
       class="st11"
       style="opacity:0.5"><path
         id="XMLID_16_"
         class="st9"
         d="m 16.4,709.1 c 0,-50.5 40.9,-91.4 91.4,-91.4 l 774.8,0 c 17.4,0 33.7,4.9 47.6,13.3 -16.8,-14.8 -38.8,-23.8 -63,-23.8 l -755.7,0 c -52.6,0 -95.2,42.6 -95.2,95.2 l 0,5.7 c 0,1.1 0,2.2 0.1,3.3 l 0,-2.3 z"
         inkscape:connector-curvature="0"
         style="fill:#ffffff" /></g><g
       id="texture"
       class="st14"
       style="opacity:0.05"><path
         id="XMLID_52_"
         class="st13"
         d="m 974,705.3 c 0,-17.6 -4.2,-34.2 -11.6,-48.9 C 769.1,511 252.2,905.6 7.8,730.9 c 11.5,47.8 54.6,83.4 105.9,83.4 l 751.3,0 c 60.2,0 109,-48.8 109,-109 l 0,0 z"
         inkscape:connector-curvature="0"
         style="fill:#010101" /></g><g
       id="XMLID_65_"><path
         id="XMLID_26_"
         class="st9"
         d="m 262.1,725.4 c 0.8,0 1.5,0.3 2.1,0.9 0.6,0.6 0.9,1.3 0.9,2.1 l 0,12 c 0,0.8 -0.3,1.5 -0.9,2.1 -0.6,0.6 -1.3,0.9 -2.1,0.9 l -53.5,0 c -0.8,0 -1.5,-0.3 -2.1,-0.9 -0.6,-0.6 -0.9,-1.3 -0.9,-2.1 l 0,-72.9 c 0,-0.8 0.3,-1.5 0.9,-2.1 0.6,-0.6 1.3,-0.9 2.1,-0.9 l 52.6,0 c 0.8,0 1.5,0.3 2.1,0.9 0.6,0.6 0.9,1.3 0.9,2.1 l 0,12 c 0,0.8 -0.3,1.5 -0.9,2.1 -0.6,0.6 -1.3,0.9 -2.1,0.9 l -34.8,0 0,12.2 32.3,0 c 0.8,0 1.5,0.3 2.1,0.9 0.6,0.6 0.9,1.3 0.9,2.1 l 0,12 c 0,0.8 -0.3,1.5 -0.9,2.1 -0.6,0.6 -1.3,0.9 -2.1,0.9 l -32.3,0 0,12.6 35.7,0 z"
         inkscape:connector-curvature="0"
         style="fill:#ffffff" /><path
         id="XMLID_28_"
         class="st9"
         d="m 310.2,720.5 -14.5,20.3 c -0.5,0.7 -1,1.3 -1.5,1.8 -0.6,0.5 -1.6,0.8 -3.1,0.8 l -17.1,0 c -0.7,0 -1.3,-0.2 -1.7,-0.7 -0.5,-0.5 -0.7,-1.1 -0.7,-1.7 0,-0.1 0,-0.3 0.1,-0.5 0,-0.2 0.1,-0.4 0.3,-0.7 l 26.1,-36.5 -25,-35.1 c -0.2,-0.5 -0.3,-0.9 -0.3,-1.2 0,-0.7 0.2,-1.3 0.7,-1.7 0.5,-0.5 1.1,-0.7 1.7,-0.7 l 17,0 c 1.5,0 2.6,0.4 3.3,1.1 0.7,0.8 1.2,1.3 1.5,1.7 l 13.7,19.1 13.2,-19.1 c 0.3,-0.4 0.8,-0.9 1.5,-1.7 0.7,-0.8 1.8,-1.1 3.3,-1.1 l 17.3,0 c 0.7,0 1.3,0.2 1.7,0.7 0.5,0.5 0.7,1.1 0.7,1.7 0,0.4 -0.1,0.8 -0.3,1.2 l -25.1,35.6 25.9,36 c 0.2,0.3 0.2,0.5 0.3,0.7 0,0.2 0.1,0.4 0.1,0.5 0,0.7 -0.2,1.3 -0.7,1.7 -0.5,0.5 -1.1,0.7 -1.7,0.7 l -17.2,0 c -1.5,0 -2.5,-0.3 -3.1,-0.8 -0.6,-0.5 -1.1,-1.1 -1.5,-1.8 l -14.9,-20.3 z"
         inkscape:connector-curvature="0"
         style="fill:#ffffff" /><path
         id="XMLID_34_"
         class="st9"
         d="m 416.5,664.4 c 0.8,0 1.5,0.3 2.1,0.9 0.6,0.6 0.9,1.3 0.9,2.1 l 0,12 c 0,0.8 -0.3,1.5 -0.9,2.1 -0.6,0.6 -1.3,0.9 -2.1,0.9 l -19.9,0 0,57.9 c 0,0.8 -0.3,1.5 -0.9,2.1 -0.6,0.6 -1.3,0.9 -2.1,0.9 l -14.8,0 c -0.8,0 -1.5,-0.3 -2.1,-0.9 -0.6,-0.6 -0.9,-1.3 -0.9,-2.1 l 0,-57.9 -19.9,0 c -0.8,0 -1.5,-0.3 -2.1,-0.9 -0.6,-0.6 -0.9,-1.3 -0.9,-2.1 l 0,-12 c 0,-0.8 0.3,-1.5 0.9,-2.1 0.6,-0.6 1.3,-0.9 2.1,-0.9 l 60.6,0 z"
         inkscape:connector-curvature="0"
         style="fill:#ffffff" /><path
         id="XMLID_39_"
         class="st9"
         d="m 463.3,664.4 c 5,0 9.4,0.5 13.3,1.6 3.9,1.1 7.2,2.6 10,4.7 2.7,2.1 4.9,4.8 6.3,8.1 1.5,3.3 2.2,7.1 2.2,11.5 0,5.6 -1.2,10.3 -3.5,14.1 -2.3,3.7 -5.6,6.6 -9.9,8.5 l 14,26.9 c 0.2,0.5 0.3,0.9 0.3,1.2 0,0.7 -0.2,1.3 -0.7,1.7 -0.5,0.5 -1.1,0.7 -1.7,0.7 l -15.4,0 c -1.5,0 -2.6,-0.3 -3.2,-1 -0.6,-0.7 -1.1,-1.4 -1.5,-2 l -12.5,-24.2 -10.4,0 0,24.2 c 0,0.8 -0.3,1.5 -0.9,2.1 -0.6,0.6 -1.3,0.9 -2.1,0.9 l -14.8,0 c -0.8,0 -1.5,-0.3 -2.1,-0.9 -0.6,-0.6 -0.9,-1.3 -0.9,-2.1 l 0,-72.9 c 0,-0.8 0.3,-1.5 0.9,-2.1 0.6,-0.6 1.3,-0.9 2.1,-0.9 l 30.5,0 z m -12.7,34.2 12.8,0 c 3.2,0 5.8,-0.6 7.8,-1.8 2.1,-1.2 3.1,-3.4 3.1,-6.5 0,-3.2 -1,-5.3 -3.1,-6.5 -2.1,-1.2 -4.7,-1.8 -7.8,-1.8 l -12.8,0 0,16.6 z"
         inkscape:connector-curvature="0"
         style="fill:#ffffff" /><path
         id="XMLID_42_"
         class="st9"
         d="m 549.3,664.4 c 1.5,0 2.7,0.4 3.4,1.2 0.8,0.8 1.3,1.7 1.6,2.5 l 24.6,71.1 c 0.3,0.8 0.5,1.3 0.5,1.7 0,0.7 -0.2,1.3 -0.7,1.7 -0.5,0.5 -1.1,0.7 -1.7,0.7 l -14.2,0 c -1.5,0 -2.6,-0.3 -3.2,-1 -0.6,-0.6 -1,-1.3 -1.2,-1.9 l -3.2,-9.4 -30,0 -3.2,9.4 c -0.2,0.6 -0.5,1.2 -1.2,1.9 -0.6,0.6 -1.7,1 -3.2,1 l -14.2,0 c -0.7,0 -1.3,-0.2 -1.7,-0.7 -0.5,-0.5 -0.7,-1.1 -0.7,-1.7 0,-0.4 0.1,-0.9 0.5,-1.7 l 24.6,-71.1 c 0.3,-0.8 0.8,-1.7 1.6,-2.5 0.8,-0.8 1.9,-1.2 3.4,-1.2 l 18.2,0 z m -18.2,49.4 18.3,0 -9.1,-27.1 -9.2,27.1 z"
         inkscape:connector-curvature="0"
         style="fill:#ffffff" /><path
         id="XMLID_45_"
         class="st9"
         d="m 638.8,664.4 c 0.8,0 1.5,0.3 2.1,0.9 0.6,0.6 0.9,1.3 0.9,2.1 l 0,12 c 0,0.8 -0.3,1.5 -0.9,2.1 -0.6,0.6 -1.3,0.9 -2.1,0.9 l -19.9,0 0,57.9 c 0,0.8 -0.3,1.5 -0.9,2.1 -0.6,0.6 -1.3,0.9 -2.1,0.9 l -14.8,0 c -0.8,0 -1.5,-0.3 -2.1,-0.9 -0.6,-0.6 -0.9,-1.3 -0.9,-2.1 l 0,-57.9 -19.9,0 c -0.8,0 -1.5,-0.3 -2.1,-0.9 -0.6,-0.6 -0.9,-1.3 -0.9,-2.1 l 0,-12 c 0,-0.8 0.3,-1.5 0.9,-2.1 0.6,-0.6 1.3,-0.9 2.1,-0.9 l 60.6,0 z"
         inkscape:connector-curvature="0"
         style="fill:#ffffff" /><path
         id="XMLID_47_"
         class="st9"
         d="m 708.5,725.4 c 0.8,0 1.5,0.3 2.1,0.9 0.6,0.6 0.9,1.3 0.9,2.1 l 0,12 c 0,0.8 -0.3,1.5 -0.9,2.1 -0.6,0.6 -1.3,0.9 -2.1,0.9 l -53.5,0 c -0.8,0 -1.5,-0.3 -2.1,-0.9 -0.6,-0.6 -0.9,-1.3 -0.9,-2.1 l 0,-72.9 c 0,-0.8 0.3,-1.5 0.9,-2.1 0.6,-0.6 1.3,-0.9 2.1,-0.9 l 52.6,0 c 0.8,0 1.5,0.3 2.1,0.9 0.6,0.6 0.9,1.3 0.9,2.1 l 0,12 c 0,0.8 -0.3,1.5 -0.9,2.1 -0.6,0.6 -1.3,0.9 -2.1,0.9 l -34.8,0 0,12.2 32.3,0 c 0.8,0 1.5,0.3 2.1,0.9 0.6,0.6 0.9,1.3 0.9,2.1 l 0,12 c 0,0.8 -0.3,1.5 -0.9,2.1 -0.6,0.6 -1.3,0.9 -2.1,0.9 l -32.3,0 0,12.6 35.7,0 z"
         inkscape:connector-curvature="0"
         style="fill:#ffffff" /><path
         id="XMLID_49_"
         class="st9"
         d="m 758.2,664.4 c 5,0 9.4,0.5 13.3,1.6 3.9,1.1 7.2,2.6 10,4.7 2.7,2.1 4.9,4.8 6.3,8.1 1.5,3.3 2.2,7.1 2.2,11.5 0,5.6 -1.2,10.3 -3.5,14.1 -2.3,3.7 -5.6,6.6 -9.9,8.5 l 14,26.9 c 0.2,0.5 0.3,0.9 0.3,1.2 0,0.7 -0.2,1.3 -0.7,1.7 -0.5,0.5 -1.1,0.7 -1.7,0.7 l -15.4,0 c -1.5,0 -2.6,-0.3 -3.2,-1 -0.6,-0.7 -1.1,-1.4 -1.5,-2 l -12.5,-24.2 -10.4,0 0,24.2 c 0,0.8 -0.3,1.5 -0.9,2.1 -0.6,0.6 -1.3,0.9 -2.1,0.9 l -14.8,0 c -0.8,0 -1.5,-0.3 -2.1,-0.9 -0.6,-0.6 -0.9,-1.3 -0.9,-2.1 l 0,-72.9 c 0,-0.8 0.3,-1.5 0.9,-2.1 0.6,-0.6 1.3,-0.9 2.1,-0.9 l 30.5,0 z m -12.8,34.2 12.8,0 c 3.2,0 5.8,-0.6 7.8,-1.8 2.1,-1.2 3.1,-3.4 3.1,-6.5 0,-3.2 -1,-5.3 -3.1,-6.5 -2.1,-1.2 -4.7,-1.8 -7.8,-1.8 l -12.8,0 0,16.6 z"
         inkscape:connector-curvature="0"
         style="fill:#ffffff" /><path
         id="XMLID_59_"
         class="st9"
         d="m 836,723.5 c -0.6,-0.6 -1.1,-1.3 -1.5,-1.9 l -10.6,-18.6 0,37.4 c 0,0.8 -0.3,1.5 -0.9,2.1 -0.6,0.6 -1.3,0.9 -2.1,0.9 l -14.8,0 c -0.8,0 -1.5,-0.3 -2.1,-0.9 -0.6,-0.6 -0.9,-1.3 -0.9,-2.1 l 0,-72.9 c 0,-0.8 0.3,-1.5 0.9,-2.1 0.6,-0.6 1.3,-0.9 2.1,-0.9 l 13.1,0 c 1.5,0 2.6,0.4 3.4,1.2 0.8,0.8 1.2,1.4 1.5,1.8 l 18.3,31.3 18.3,-31.3 c 0.2,-0.4 0.7,-1 1.5,-1.8 0.8,-0.8 1.9,-1.2 3.4,-1.2 l 13.1,0 c 0.8,0 1.5,0.3 2.1,0.9 0.6,0.6 0.9,1.3 0.9,2.1 l 0,72.9 c 0,0.8 -0.3,1.5 -0.9,2.1 -0.6,0.6 -1.3,0.9 -2.1,0.9 l -14.8,0 c -0.8,0 -1.5,-0.3 -2.1,-0.9 -0.6,-0.6 -0.9,-1.3 -0.9,-2.1 l 0,-37.4 -10.6,18.6 c -0.4,0.6 -0.9,1.2 -1.5,1.9 -0.6,0.6 -1.5,1 -2.7,1 l -7.2,0 c -1.3,0 -2.2,-0.3 -2.9,-1 z"
         inkscape:connector-curvature="0"
         style="fill:#ffffff" /></g></g></svg>