<?xml version="1.0" encoding="UTF-8" standalone="no"?>
<svg
   xmlns:dc="http://purl.org/dc/elements/1.1/"
   xmlns:cc="http://creativecommons.org/ns#"
   xmlns:rdf="http://www.w3.org/1999/02/22-rdf-syntax-ns#"
   xmlns:svg="http://www.w3.org/2000/svg"
   xmlns="http://www.w3.org/2000/svg"
   xmlns:sodipodi="http://sodipodi.sourceforge.net/DTD/sodipodi-0.dtd"
   xmlns:inkscape="http://www.inkscape.org/namespaces/inkscape"
   id="svg2"
   height="100"
   width="100"
   version="1.1"
   inkscape:version="0.92.2 (5c3e80d, 2017-08-06)"
   sodipodi:docname="8_rows.svg">
  <sodipodi:namedview
     pagecolor="#ffffff"
     bordercolor="#666666"
     borderopacity="1"
     objecttolerance="10"
     gridtolerance="10"
     guidetolerance="10"
     inkscape:pageopacity="0"
     inkscape:pageshadow="2"
     inkscape:window-width="1920"
     inkscape:window-height="1004"
     id="namedview4172"
     showgrid="true"
     inkscape:zoom="16.2"
     inkscape:cx="55.219319"
     inkscape:cy="52.384046"
     inkscape:window-x="0"
     inkscape:window-y="0"
     inkscape:window-maximized="1"
     inkscape:current-layer="svg2"
     showguides="true"
     inkscape:guide-bbox="true"
     inkscape:measure-start="17,13"
     inkscape:measure-end="17,1">
    <inkscape:grid
       type="xygrid"
       id="grid4141" />
    <sodipodi:guide
       position="50.864198,67.322835"
       orientation="1,0"
       id="guide4143"
       inkscape:locked="false" />
    <sodipodi:guide
       position="97.160494,50.987654"
       orientation="0,1"
       id="guide4145"
       inkscape:locked="false" />
  </sodipodi:namedview>
  <defs
     id="defs4" />
  <metadata
     id="metadata7">
    <rdf:RDF>
      <cc:Work
         rdf:about="">
        <dc:format>image/svg+xml</dc:format>
        <dc:type
           rdf:resource="http://purl.org/dc/dcmitype/StillImage" />
        <dc:title></dc:title>
      </cc:Work>
    </rdf:RDF>
  </metadata>
  <path
     id="path4167"
     style="stroke:none;stroke-opacity:1"
     d="m 12.621094,11.214844 c -2.50712,0 -4.6540874,0.894314 -6.4394534,2.679687 -1.7853658,1.785373 -2.6777344,3.932333 -2.6777344,6.439453 v 69.28711 c -10e-7,2.50712 0.8923686,4.652134 2.6777344,6.4375 1.785366,1.785366 3.9323334,2.677734 6.4394534,2.677734 h 76.580078 c 2.507119,0 4.65408,-0.892368 6.439453,-2.677734 1.785372,-1.785366 2.677734,-3.93038 2.677734,-6.4375 v -69.28711 c 0,-2.50712 -0.892362,-4.65408 -2.677734,-6.439453 -1.785373,-1.785373 -3.932334,-2.679687 -6.439453,-2.679687 z M 15,32 H 51 86 V 53 H 15 Z m 0,33 h 71 l 0.06445,20.664062 c 0.0015,0.493832 -0.180144,0.922338 -0.541015,1.283204 -0.360873,0.360866 -0.787426,0.541015 -1.28125,0.541015 L 50.910156,87.443359 H 16.855469 c -0.493834,0 -0.922337,-0.180149 -1.283203,-0.541015 -0.360866,-0.360866 -0.540378,-0.787416 -0.541016,-1.28125 z"
     inkscape:connector-curvature="0"
     sodipodi:nodetypes="sssssssssssssccccccccccccsscc" />
</svg>
